HIERARCHY
ROOT Hips
{
	OFFSET 0.000000 0.000000 0.000000
	CHANNELS 6 Xposition Yposition Zposition Zrotation Yrotation Xrotation 
	JOINT LHipJoint
	{
		OFFSET 0.000000 0.000000 0.000000
		CHANNELS 3 Zrotation Yrotation Xrotation
		JOINT LeftUpLeg
		{
			OFFSET 1.363060 -1.794630 0.839290
			CHANNELS 3 Zrotation Yrotation Xrotation
			JOINT LeftLeg
			{
				OFFSET 2.448110 -6.726130 0.000000
				CHANNELS 3 Zrotation Yrotation Xrotation
				JOINT LeftFoot
				{
					OFFSET 2.562200 -7.039590 0.000000
					CHANNELS 3 Zrotation Yrotation Xrotation
					JOINT LeftToeBase
					{
						OFFSET 0.157640 -0.433110 2.322550
						CHANNELS 3 Zrotation Yrotation Xrotation
						End Site
						{
							OFFSET 0.000000 0.000000 0.000000
						}
					}
				}
			}
		}
	}
	JOINT RHipJoint
	{
		OFFSET 0.000000 0.000000 0.000000
		CHANNELS 3 Zrotation Yrotation Xrotation
		JOINT RightUpLeg
		{
			OFFSET -1.305520 -1.794630 0.839290
			CHANNELS 3 Zrotation Yrotation Xrotation
			JOINT RightLeg
			{
				OFFSET -2.542530 -6.985550 0.000000
				CHANNELS 3 Zrotation Yrotation Xrotation
				JOINT RightFoot
				{
					OFFSET -2.568260 -7.056230 0.000000
					CHANNELS 3 Zrotation Yrotation Xrotation
					JOINT RightToeBase
					{
						OFFSET -0.164730 -0.452590 2.363150
						CHANNELS 3 Zrotation Yrotation Xrotation
						End Site
						{
							OFFSET 0.000000 0.000000 0.000000
						}
					}
				}
			}
		}
	}
}
MOTION
Frames: 31
Frame Time: 0.008333
9.281518 17.652186 0.782721 30.177817 -82.321474 -6.497778 -10.823221 2.774786 2.555349 -7.555796 2.675485 -26.969681 -0.903953 0.803502 26.776639 1.380044 9.520917 12.284290 3.208500 0.000000 -76.200100 10.915838 -2.041990 -0.526182 5.937563 -14.249227 -24.874532 1.197918 -1.735896 28.565029 -0.744119 -3.765701 11.596193 -1.516000 -0.000000 -89.774300
9.138576 17.937464 0.769888 28.796421 -82.389037 -5.925181 -10.960539 2.908486 2.570074 -6.914868 2.976448 -25.119117 -0.742479 0.753878 24.096206 1.411232 9.414837 17.906490 3.867001 -0.000000 -74.836199 10.992026 -2.233715 -0.657431 5.749027 -15.095195 -22.820809 1.149368 -1.615267 25.224668 -0.641984 -2.723545 17.956168 -1.341800 -0.000001 -89.558200
8.996458 18.213107 0.756830 27.756375 -82.495517 -5.445223 -11.062117 3.000304 2.644728 -6.364096 2.998538 -23.722595 -0.604046 0.699380 21.814030 1.500459 9.477293 22.646674 4.442100 -0.000000 -72.446100 11.054835 -2.378296 -0.716637 5.600968 -15.712186 -21.300178 1.140701 -1.503059 22.306318 -0.592779 -1.531595 23.399138 -0.850700 0.000000 -88.384800
8.855955 18.477674 0.743769 27.034818 -82.636047 -5.053699 -11.128252 3.054737 2.769352 -5.915908 2.776104 -22.765936 -0.488987 0.640386 19.963276 1.612908 9.737169 26.339157 4.994199 0.000000 -69.446800 11.100652 -2.478962 -0.714905 5.515373 -16.115986 -20.304377 1.170118 -1.400014 19.865717 -0.563533 -0.274981 27.686571 -0.148200 0.000000 -86.641000
8.717897 18.730261 0.730920 26.596323 -82.804150 -4.742887 -11.161903 3.077659 2.931657 -5.567905 2.345795 -22.211784 -0.393449 0.580013 18.541620 1.725924 10.219677 28.942814 5.573700 -0.000000 -66.418200 11.127837 -2.541813 -0.667325 5.502219 -16.331609 -19.792941 1.230178 -1.309214 17.908265 -0.530543 0.911302 30.730046 0.609600 -0.000001 -84.895300
8.583351 18.970349 0.718631 26.372399 -82.992131 -4.481158 -11.167749 3.074099 3.116144 -5.309595 1.762617 -22.023187 -0.315489 0.523114 17.547604 1.824530 10.885720 30.467895 6.171901 0.000000 -63.535400 11.135489 -2.573479 -0.589435 5.564598 -16.390377 -19.712055 1.313522 -1.234360 16.422900 -0.479028 1.903972 32.527578 1.272301 0.000000 -83.333300
8.453136 19.197535 0.707081 26.320842 -83.191491 -4.261179 -11.150649 3.047385 3.308745 -5.128173 1.072193 -22.144716 -0.252912 0.471933 16.937922 1.905344 11.683025 31.030125 6.760800 -0.000001 -61.185700 11.124672 -2.577858 -0.496170 5.693169 -16.324812 -19.989151 1.413478 -1.175328 15.355784 -0.406322 2.606550 33.191611 1.725200 -0.000000 -82.266901
8.328000 19.411738 0.696415 26.389054 -83.393350 -4.066036 -11.116081 2.999952 3.494321 -5.013860 0.340470 -22.533281 -0.207642 0.428552 16.674108 1.965634 12.497145 30.761690 7.262500 -0.000000 -59.296600 11.096628 -2.557441 -0.399416 5.877430 -16.173086 -20.558213 1.526827 -1.130101 14.655063 -0.314565 2.996847 32.868543 1.927500 0.000000 -81.544899
8.208788 19.612754 0.686377 26.632740 -83.588389 -3.990736 -11.066935 2.934059 3.656816 -4.970478 -0.384701 -23.117845 -0.182293 0.393583 16.682529 2.006479 13.233618 29.842682 7.617500 0.000001 -57.801699 11.056054 -2.508509 -0.315684 6.087544 -15.987730 -21.343987 1.650548 -1.094895 14.252286 -0.212326 3.109281 31.762355 1.902700 -0.000000 -81.324900
8.095276 19.800729 0.677235 26.928415 -83.771192 -3.928490 -11.010856 2.851672 3.788105 -4.986032 -1.032141 -23.883111 -0.179498 0.367573 16.913468 2.025833 13.773420 28.462677 7.763100 -0.000000 -56.655000 11.002097 -2.435748 -0.246587 6.331852 -15.798998 -22.309615 1.785319 -1.065910 14.097506 -0.107077 3.013754 30.065003 1.711301 0.000000 -81.045901
7.988178 19.976128 0.668559 27.351544 -83.937139 -3.988118 -10.950154 2.754977 3.874803 -5.069317 -1.572719 -24.752703 -0.200065 0.350543 17.269463 2.025244 14.080593 26.844379 7.709600 -0.000000 -55.915001 10.940123 -2.335345 -0.206404 6.584667 -15.650669 -23.385388 1.926405 -1.040080 14.105740 -0.012635 2.773822 28.042694 1.421900 0.000000 -81.027901
7.886736 20.139458 0.660429 27.817645 -84.085554 -4.088344 -10.890188 2.647556 3.917155 -5.214791 -1.970283 -25.718571 -0.244483 0.342351 17.692339 2.001303 14.111537 25.156204 7.469100 0.000000 -55.435600 10.870217 -2.213900 -0.190826 6.857937 -15.555970 -24.559048 2.072719 -1.016961 14.233148 0.064977 2.454538 25.881728 1.095700 0.000000 -80.959800
7.790390 20.290966 0.652644 28.316704 -84.218758 -4.224083 -10.833578 2.532858 3.914888 -5.421817 -2.215986 -26.748738 -0.311384 0.342192 18.110829 1.953244 13.877358 23.548978 7.091100 0.000000 -55.123300 10.794705 -2.075898 -0.199792 7.150270 -15.522467 -25.803793 2.221081 -0.997402 14.428660 0.121508 2.101604 23.755126 0.775400 0.000000 -80.676800
7.698288 20.431595 0.645019 28.839728 -84.341035 -4.382535 -10.781538 2.413844 3.873769 -5.686326 -2.322160 -27.822111 -0.397406 0.347877 18.459413 1.883474 13.426493 22.141604 6.640200 0.000000 -55.061200 10.715407 -1.927186 -0.227058 7.463918 -15.536145 -27.103064 2.367692 -0.981400 14.634906 0.154497 1.724523 21.809583 0.475300 -0.000000 -80.475800
7.609322 20.561364 0.637361 29.383231 -84.457504 -4.550997 -10.733847 2.293313 3.802992 -6.002472 -2.311839 -28.926316 -0.499585 0.356412 18.688883 1.795602 12.816719 20.988411 6.167600 0.000001 -55.145800 10.633404 -1.773835 -0.262688 7.798804 -15.570274 -28.447304 2.511231 -0.968567 14.815912 0.167649 1.341962 20.101531 0.205000 -0.000000 -80.131901
7.522089 20.680541 0.629420 29.963304 -84.573062 -4.730947 -10.689005 2.173463 3.713977 -6.363058 -2.219515 -30.052057 -0.614473 0.363770 18.759680 1.696320 12.122438 20.108884 5.718299 0.000000 -55.422100 10.549949 -1.621062 -0.293854 8.150968 -15.588590 -29.826388 2.650433 -0.955720 14.924254 0.164144 0.951888 18.669140 -0.040600 -0.000000 -79.929700
7.435362 20.789217 0.620991 30.596195 -84.690783 -4.926457 -10.644629 2.056046 3.618914 -6.760926 -2.079170 -31.199170 -0.740079 0.365939 18.653878 1.592224 11.409466 19.470461 5.317300 -0.000001 -55.818300 10.465518 -1.472924 -0.307265 8.513949 -15.557333 -31.238952 2.786977 -0.939733 14.941479 0.151135 0.575896 17.476007 -0.259000 0.000000 -79.773500
7.347772 20.887130 0.611864 31.314437 -84.812162 -5.156936 -10.597944 1.942535 3.529219 -7.189039 -1.925165 -32.367652 -0.875021 0.358824 18.364483 1.490168 10.740043 19.019603 4.981200 0.000000 -56.298000 10.380987 -1.332552 -0.289418 8.875680 -15.442396 -32.677838 2.922753 -0.915535 14.842069 0.134911 0.232001 16.478212 -0.449700 -0.000001 -79.694300
7.258298 20.974416 0.601884 32.141529 -84.936453 -5.439646 -10.546444 1.834086 3.454271 -7.641229 -1.783865 -33.560577 -1.018932 0.339200 17.900728 1.395395 10.159300 18.687874 4.716501 0.000000 -56.810700 10.297036 -1.201883 -0.229466 9.221795 -15.221097 -34.138489 3.060684 -0.878746 14.616122 0.122605 -0.050121 15.611771 -0.606400 -0.000000 -79.677901
7.165946 21.050545 0.590943 33.106700 -85.060770 -5.798553 -10.488326 1.732018 3.401085 -8.113081 -1.673147 -34.781385 -1.172066 0.304687 17.281503 1.311408 9.694911 18.412021 4.523601 0.000000 -57.328600 10.214856 -1.082271 -0.119329 9.535876 -14.881953 -35.615422 3.203466 -0.825533 14.258378 0.120846 -0.239348 14.822669 -0.720700 0.000000 -79.727900
7.070135 21.115426 0.578970 34.226366 -85.181175 -6.253214 -10.422790 1.637354 3.372772 -8.603001 -1.597931 -36.034015 -1.335519 0.254575 16.537402 1.238869 9.347579 18.137351 4.392900 0.000000 -57.730100 10.135540 -0.974336 0.044386 9.802385 -14.427425 -37.102245 3.353504 -0.753952 13.776820 0.136438 -0.299764 14.063180 -0.781601 0.000000 -79.672700
6.970636 21.169075 0.565971 35.509908 -85.291240 -6.823457 -10.350075 1.551233 3.369678 -9.112735 -1.556376 -37.317759 -1.510053 0.189565 15.700588 1.176881 9.102016 17.839548 4.312600 -0.000000 -57.955300 10.060730 -0.877848 0.260339 10.007126 -13.874918 -38.589945 3.511325 -0.663448 13.178159 0.174204 -0.208411 13.325037 -0.782700 -0.000000 -79.501000
6.867687 21.211452 0.552129 36.955658 -85.389401 -7.521146 -10.272590 1.474129 3.387138 -9.644795 -1.533896 -38.625394 -1.695111 0.111895 14.793571 1.123823 8.936304 17.550660 4.274300 -0.000000 -58.301900 9.991869 -0.792069 0.521832 10.143324 -13.250157 -40.068824 3.675335 -0.555369 12.469911 0.236124 0.037102 12.640784 -0.726100 0.000000 -79.476100
6.761205 21.242534 0.537515 38.544688 -85.468370 -8.344408 -10.192623 1.407981 3.420332 -10.209039 -1.511895 -39.952381 -1.892829 0.025933 13.857796 1.072658 8.791405 17.274589 4.249900 0.000001 -58.441100 9.930436 -0.717063 0.819272 10.209691 -12.591623 -41.528718 3.844247 -0.433883 11.679756 0.325172 0.446452 12.031582 -0.610299 -0.000000 -79.261500
6.651920 21.262843 0.522421 40.238759 -85.527253 -9.278595 -10.113903 1.353351 3.460913 -10.812524 -1.469915 -41.283075 -2.102724 -0.063079 12.913851 1.017479 8.624324 17.073322 4.225300 0.000001 -58.519999 9.877433 -0.652011 1.138925 10.213858 -11.936270 -42.957027 4.014230 -0.304358 10.826496 0.439786 0.998664 11.559753 -0.444000 -0.000000 -79.000300
6.540217 21.272385 0.507092 41.991271 -85.566478 -10.296705 -10.040171 1.311081 3.500849 -11.461571 -1.390070 -42.598474 -2.324410 -0.149561 11.979666 0.951231 8.391092 17.003239 4.185300 0.000000 -58.604600 9.833619 -0.596714 1.466312 10.169890 -11.318370 -44.339386 4.181402 -0.173116 9.933784 0.576625 1.665122 11.279790 -0.235800 0.000000 -78.759299
6.426819 21.271288 0.491858 43.738351 -85.588883 -11.357134 -9.974565 1.280835 3.532218 -12.157843 -1.259796 -43.875920 -2.556613 -0.228347 11.067460 0.867644 8.056229 17.110584 4.116500 -0.000000 -58.731401 9.798917 -0.550599 1.786731 10.095881 -10.763993 -45.659156 4.341797 -0.046664 9.026919 0.730176 2.410260 11.230998 0.007000 0.000000 -78.599900
6.312200 21.259814 0.476998 45.422882 -85.598915 -12.419615 -9.919336 1.261253 3.549456 -12.894452 -1.077553 -45.088127 -2.796198 -0.296322 10.177707 0.763618 7.604328 17.430075 4.010500 -0.000001 -59.012600 9.772703 -0.512605 2.087117 10.009626 -10.289136 -46.897949 4.491906 0.069768 8.128348 0.893209 3.195889 11.428696 0.278300 0.000000 -78.599600
6.196894 21.238076 0.462725 46.972142 -85.601821 -13.427272 -9.875094 1.249684 3.547241 -13.660915 -0.841343 -46.213543 -3.040691 -0.351357 9.321246 0.636855 7.013764 17.943354 3.848600 -0.000000 -59.290300 9.753350 -0.481429 2.357599 9.926175 -9.897943 -48.034503 4.628842 0.173117 7.257895 1.057406 3.984605 11.853676 0.571800 -0.000001 -78.748300
6.081316 21.205879 0.449287 48.357543 -85.603163 -14.356509 -9.841330 1.242119 3.528396 -14.427315 -0.579387 -47.222512 -3.282172 -0.396927 8.470269 0.493911 6.320207 18.654506 3.639000 -0.000000 -59.878000 9.739090 -0.453882 2.590055 9.855664 -9.589417 -49.060922 4.751003 0.260735 6.439369 1.215480 4.748923 12.463734 0.882300 -0.000000 -79.116900
5.965666 21.163165 0.436674 49.509251 -85.606904 -15.143529 -9.816024 1.234219 3.491918 -15.171647 -0.297895 -48.103896 -3.517254 -0.434749 7.639696 0.337584 5.517279 19.477468 3.362700 0.000000 -60.471500 9.727381 -0.427918 2.782114 9.800954 -9.350832 -49.955284 4.856810 0.335266 5.678055 1.359278 5.454827 13.183537 1.196400 -0.000001 -79.606900
